HIERARCHY
ROOT Hips
{
 OFFSET 0.000000 0.000000 0.000000
 CHANNELS 6 Xposition Yposition Zposition Yrotation Xrotation Zrotation
 JOINT Chest
 {
  OFFSET 0.000000 9.588913 -0.003946
  CHANNELS 3 Yrotation Xrotation Zrotation
  JOINT Chest2
  {
   OFFSET 0.000000 9.541882 0.008053
   CHANNELS 3 Yrotation Xrotation Zrotation
   JOINT Chest3
   {
    OFFSET 0.000000 9.501360 0.000000
    CHANNELS 3 Yrotation Xrotation Zrotation
    JOINT Chest4
    {
     OFFSET 0.000000 9.491660 0.000000
     CHANNELS 3 Yrotation Xrotation Zrotation
     JOINT Neck
     {
      OFFSET 0.000000 14.331917 0.000000
      CHANNELS 3 Yrotation Xrotation Zrotation
      JOINT Head
      {
       OFFSET 0.000000 8.884799 0.017034
       CHANNELS 3 Yrotation Xrotation Zrotation
       End Site
       {
        OFFSET 0.000000 16.896195 0.008993
       }
      }
     }
     JOINT RightCollar
     {
      OFFSET -2.923010 9.499495 0.000000
      CHANNELS 3 Yrotation Xrotation Zrotation
      JOINT RightShoulder
      {
       OFFSET -13.795216 0.000000 0.000000
       CHANNELS 3 Yrotation Xrotation Zrotation
       JOINT RightElbow
       {
        OFFSET -30.272209 0.000000 0.000000
        CHANNELS 3 Yrotation Xrotation Zrotation
        JOINT RightWrist
        {
         OFFSET -24.478199 0.000000 0.000000
         CHANNELS 3 Yrotation Xrotation Zrotation
         End Site
         {
          OFFSET -18.090752 0.000000 0.000000
         }
        }
       }
      }
     }
     JOINT LeftCollar
     {
      OFFSET 2.923010 9.499495 0.000000
      CHANNELS 3 Yrotation Xrotation Zrotation
      JOINT LeftShoulder
      {
       OFFSET 13.795216 0.000000 0.000000
       CHANNELS 3 Yrotation Xrotation Zrotation
       JOINT LeftElbow
       {
        OFFSET 30.272209 0.000000 0.000000
        CHANNELS 3 Yrotation Xrotation Zrotation
        JOINT LeftWrist
        {
         OFFSET 24.478199 0.000000 0.000000
         CHANNELS 3 Yrotation Xrotation Zrotation
         End Site
         {
          OFFSET 18.090752 0.000000 0.000000
         }
        }
       }
      }
     }
    }
   }
  }
 }
 JOINT RightHip
 {
  OFFSET -7.826875 0.019532 0.001973
  CHANNELS 3 Yrotation Xrotation Zrotation
  JOINT RightKnee
  {
   OFFSET 0.000000 -40.546152 -0.001885
   CHANNELS 3 Yrotation Xrotation Zrotation
   JOINT RightAnkle
   {
    OFFSET 0.000000 -39.417092 -0.003189
    CHANNELS 3 Yrotation Xrotation Zrotation
    JOINT RightToe
    {
     OFFSET 0.000000 -7.579396 17.243563
     CHANNELS 3 Yrotation Xrotation Zrotation
     End Site
     {
      OFFSET 0.000000 -1.500329 6.694466
     }
    }
   }
  }
 }
 JOINT LeftHip
 {
  OFFSET 7.826875 0.019532 0.001973
  CHANNELS 3 Yrotation Xrotation Zrotation
  JOINT LeftKnee
  {
   OFFSET 0.000000 -40.546152 -0.001885
   CHANNELS 3 Yrotation Xrotation Zrotation
   JOINT LeftAnkle
   {
    OFFSET 0.000000 -39.417092 -0.003189
    CHANNELS 3 Yrotation Xrotation Zrotation
    JOINT LeftToe
    {
     OFFSET 0.000000 -7.579396 17.243563
     CHANNELS 3 Yrotation Xrotation Zrotation
     End Site
     {
      OFFSET 0.000000 -1.500329 6.694466
     }
    }
   }
  }
 }
}
MOTION
Frames: 12
Frame Time: 0.008333
0.000000 87.345680 0.000000 0.000000 -5.767889 0.000000 0.000000 11.653876 0.000000 0.000000 -5.885988 0.000000 0.000000 -0.000000 0.000000 0.000000 -0.000000 0.000000 0.000000 12.528808 0.000000 0.000000 0.711711 0.000000 0.000000 -0.000000 0.000000 0.000000 -0.000000 0.000000 2.309063 -0.000000 0.000000 -2.309063 -0.000000 -0.000000 0.000000 -0.000000 0.000000 0.000000 0.000000 0.000000 -2.309063 0.000000 0.000000 2.309063 -0.000000 0.000000 0.000000 8.520374 0.000000 0.000000 1.905768 0.000000 -0.000000 -4.658254 0.000000 0.000000 -0.000000 0.000000 0.000000 8.520374 0.000000 0.000000 1.905768 0.000000 -0.000000 -4.658254 0.000000 0.000000 -0.000000 0.000000
50.595728 24.207199 -17.535397 70.789070 -68.038050 -125.003259 0.760908 16.668980 9.737837 0.078824 9.482507 5.467056 0.243160 11.848550 6.859683 0.078824 9.482507 5.467057 0.740325 43.737412 5.343132 -0.167201 28.446813 6.234642 -33.717412 13.012312 -34.017493 -20.404198 48.654570 91.260988 94.943352 8.236977 32.298180 -14.406852 3.126535 -16.081185 18.085014 6.267682 18.344849 24.412044 39.983664 -68.213724 -73.864146 -2.967056 -53.179904 11.917596 29.695366 28.616290 -5.549221 -40.483047 -7.647901 -167.223565 59.418246 -174.927106 6.966936 23.498656 10.454755 0.000163 0.117858 0.009997 -2.245788 -52.256654 -7.610396 167.749218 53.290955 -178.763625 3.592353 24.880366 5.008423 -0.002505 0.093043 0.013347
50.640409 24.286479 -17.538680 70.787997 -68.022889 -125.000831 0.735268 16.674525 9.730293 0.065120 9.486406 5.463896 0.225955 11.853633 6.855379 0.065120 9.486407 5.463896 0.728929 43.745413 5.328527 -0.177768 28.459371 6.219693 -33.562069 12.983771 -34.072926 -20.228013 48.737341 91.533571 94.909733 8.272890 32.177931 -14.426257 3.137759 -16.086599 18.017091 6.298535 18.354837 24.345534 40.110627 -68.442246 -73.895073 -2.940870 -53.016773 11.928052 29.700633 28.630250 -5.545068 -40.461558 -7.662283 -167.248892 59.431684 -174.940314 6.963962 23.501698 10.456751 0.000057 0.114812 0.010024 -2.231141 -52.240311 -7.626910 167.736435 53.297475 -178.766695 3.597171 24.879713 5.016493 -0.003247 0.092536 0.012454
50.693688 24.372109 -17.543351 70.784893 -68.006968 -124.994973 0.708828 16.676947 9.722459 0.050928 9.489403 5.460742 0.208122 11.857595 6.851065 0.050928 9.489403 5.460742 0.715835 43.753091 5.313564 -0.190301 28.471433 6.204637 -33.403416 12.952858 -34.125832 -20.062497 48.818902 91.800203 94.875083 8.316501 32.056907 -14.453747 3.148414 -16.091262 17.950885 6.327454 18.366181 24.273648 40.226586 -68.681052 -73.907884 -2.903003 -52.855553 11.937218 29.703996 28.641114 -5.544995 -40.439916 -7.676900 -167.264907 59.446722 -174.947566 6.963070 23.506488 10.458631 -0.000014 0.111065 0.008867 -2.216425 -52.222132 -7.643688 167.724963 53.306021 -178.770093 3.604480 24.877080 5.025868 -0.003650 0.092257 0.012930
50.753589 24.456631 -17.549871 70.763298 -68.002527 -124.970314 0.686472 16.664675 9.713131 0.037336 9.491219 5.458100 0.191037 11.860072 6.847403 0.037336 9.491220 5.458100 0.700380 43.761153 5.298933 -0.205703 28.484255 6.190471 -33.243614 12.919586 -34.174732 -19.929008 48.897596 92.036329 94.834313 8.357518 31.947534 -14.480921 3.159877 -16.095358 17.882052 6.349884 18.376580 24.218655 40.333599 -68.915234 -73.903137 -2.850347 -52.710432 11.947656 29.707053 28.650961 -5.544010 -40.429016 -7.688350 -167.265935 59.462425 -174.942664 6.965064 23.526258 10.459083 0.000270 0.091890 0.007085 -2.199322 -52.207315 -7.653096 167.716897 53.317813 -178.771084 3.607481 24.874231 5.033617 -0.003299 0.084322 0.014243
50.819725 24.539493 -17.558609 70.765969 -67.987789 -124.972496 0.663677 16.663413 9.708155 0.024967 9.492349 5.456562 0.175504 11.861671 6.845154 0.024967 9.492350 5.456562 0.684085 43.768047 5.286608 -0.222583 28.495354 6.179199 -33.085648 12.881726 -34.221792 -19.835379 48.972501 92.232349 94.782704 8.389253 31.859620 -14.501138 3.170218 -16.100184 17.812823 6.360947 18.395150 24.173838 40.438074 -69.150592 -73.883667 -2.783570 -52.582844 11.956057 29.711432 28.657444 -5.550062 -40.403921 -7.694796 -167.259884 59.478550 -174.931951 6.967302 23.527595 10.458013 0.001172 0.091028 0.005940 -2.191122 -52.185435 -7.654761 167.711480 53.329997 -178.769692 3.605087 24.871280 5.040694 -0.003136 0.082563 0.014654
50.890500 24.615502 -17.569295 70.772206 -67.970361 -124.978858 0.641537 16.662389 9.704099 0.013103 9.493721 5.456177 0.160638 11.863563 6.844365 0.013103 9.493722 5.456177 0.667679 43.772338 5.275406 -0.239880 28.502229 6.169189 -32.928662 12.833441 -34.270193 -19.773054 49.046813 92.391776 94.719423 8.413005 31.793368 -14.513077 3.179488 -16.106940 17.748098 6.360447 18.426448 24.119692 40.543713 -69.403146 -73.849239 -2.705221 -52.463567 11.958577 29.715861 28.661821 -5.560034 -40.374531 -7.699487 -167.251489 59.495298 -174.919143 6.967689 23.527985 10.455128 0.001663 0.090378 0.004820 -2.186711 -52.159682 -7.651519 167.710746 53.344365 -178.765177 3.604299 24.869949 5.049950 -0.002974 0.079209 0.014651
50.964642 24.683010 -17.581999 70.783650 -67.950489 -124.992572 0.618818 16.662582 9.700994 0.001172 9.496221 5.456878 0.145735 11.866865 6.844943 0.001172 9.496222 5.456878 0.651387 43.772869 5.263264 -0.256956 28.502793 6.157866 -32.768467 12.771938 -34.320192 -19.731127 49.122677 92.526036 94.644791 8.433991 31.744209 -14.517027 3.189380 -16.117746 17.690188 6.348052 18.464444 24.048513 40.653521 -69.673701 -73.802945 -2.620103 -52.343365 11.954344 29.718768 28.666264 -5.575514 -40.340699 -7.699990 -167.242966 59.514010 -174.907130 6.966647 23.529833 10.452177 0.001257 0.088775 0.003174 -2.190175 -52.130067 -7.639988 167.711272 53.360732 -178.762037 3.606863 24.870998 5.061510 -0.002726 0.073679 0.015402
51.040954 24.741275 -17.596568 70.798303 -67.929083 -125.012073 0.595998 16.664162 9.699355 -0.011111 9.499580 5.458219 0.130421 11.871244 6.846319 -0.011111 9.499581 5.458220 0.636737 43.769049 5.250628 -0.272088 28.496039 6.145434 -32.604888 12.700235 -34.370852 -19.706038 49.196842 92.644204 94.557693 8.458032 31.709856 -14.512704 3.197616 -16.132661 17.637725 6.323242 18.496044 23.967430 40.770209 -69.941621 -73.753700 -2.534806 -52.216100 11.944741 29.721382 28.670877 -5.595394 -40.303373 -7.696468 -167.238625 59.535334 -174.901148 6.969504 23.532236 10.453484 0.000605 0.086098 0.001632 -2.203289 -52.098121 -7.618955 167.712847 53.378465 -178.760058 3.608922 24.874278 5.072332 -0.002375 0.066611 0.016789
51.118549 24.790189 -17.612333 70.814472 -67.906304 -125.032540 0.572514 16.666809 9.697955 -0.024032 9.502806 5.459539 0.114303 11.875468 6.847650 -0.024032 9.502807 5.459539 0.625294 43.761776 5.238060 -0.283493 28.483439 6.132298 -32.442123 12.623370 -34.423025 -19.692660 49.266054 92.748821 94.458256 8.483876 31.687424 -14.502289 3.202261 -16.151899 17.584763 6.299028 18.509872 23.886576 40.886438 -70.188553 -73.709339 -2.460061 -52.079343 11.930504 29.723126 28.675717 -5.616830 -40.263400 -7.691930 -167.237129 59.558382 -174.899851 6.971822 23.534575 10.458078 -0.000849 0.083057 0.000045 -2.217529 -52.064836 -7.596624 167.714733 53.397382 -178.758016 3.608807 24.879523 5.081814 -0.002339 0.059221 0.018987
51.196398 24.830342 -17.628884 70.834790 -67.882114 -125.055475 0.548181 16.670009 9.696097 -0.037551 9.505910 5.460282 0.097420 11.879547 6.848241 -0.037551 9.505911 5.460282 0.617694 43.751890 5.226316 -0.290537 28.466422 6.119275 -32.280847 12.541766 -34.477482 -19.685126 49.333750 92.841477 94.350178 8.507885 31.673729 -14.489192 3.207190 -16.173320 17.527054 6.290528 18.510022 23.807453 40.991854 -70.416058 -73.671857 -2.403051 -51.935644 11.911314 29.721416 28.679273 -5.638297 -40.220150 -7.687971 -167.233151 59.582801 -174.897856 6.974550 23.536841 10.464336 -0.002325 0.079931 -0.001517 -2.229508 -52.029512 -7.576100 167.711972 53.417512 -178.761889 3.610829 24.886101 5.094965 -0.002612 0.051989 0.022026
51.273193 24.862457 -17.646226 70.857677 -67.855902 -125.081546 0.524233 16.673912 9.694886 -0.051090 9.509687 5.460704 0.080513 11.884470 6.848432 -0.051090 9.509688 5.460704 0.612945 43.738212 5.216593 -0.294663 28.443169 6.107957 -32.122707 12.452995 -34.530203 -19.683972 49.400591 92.919800 94.238893 8.529893 31.669090 -14.475593 3.214190 -16.191886 17.465260 6.284532 18.504860 23.731898 41.094102 -70.624800 -73.641574 -2.358485 -51.793022 11.896493 29.718255 28.686721 -5.661031 -40.173576 -7.684039 -167.232829 59.608945 -174.897845 6.975816 23.538650 10.469092 -0.002022 0.077078 -0.002231 -2.244779 -51.992801 -7.552341 167.707636 53.437881 -178.770228 3.615372 24.891684 5.113168 -0.002976 0.046221 0.024422
